<svg xmlns="http://www.w3.org/2000/svg" viewBox="0 0 1000 185.05"><g id="Layer_2" data-name="Layer 2"><g id="Layer_1-2" data-name="Layer 1"><path d="M373.5,83.88l-5.88-14.54h-30l-6,14.54h-14.9l29.39-68.12H359l29.4,68.12ZM352.61,32.54l-9.93,24.3h19.76Z"/><path d="M423.89,83.88H410.61l-29.3-68.12h15.21L417.2,65.38,438,15.76h15.21Z"/><path d="M500.94,83.88l-5.88-14.54h-30l-6,14.54h-14.9l29.4-68.12h12.87l29.4,68.12ZM480.06,32.54l-9.94,24.3h19.77Z"/><path d="M575.84,83.88H527V15.76h13.78V71.38h35.08Z"/><path d="M642.15,24.61a34.39,34.39,0,0,1,10.4,25.31,34.13,34.13,0,0,1-10.4,25.17,36.39,36.39,0,0,1-50.78,0A34.12,34.12,0,0,1,581,49.92a35.91,35.91,0,0,1,61.17-25.31ZM632.32,66a22,22,0,0,0,6.34-16.07,22.27,22.27,0,0,0-6.34-16.16,21.85,21.85,0,0,0-31.12,0,22.27,22.27,0,0,0-6.34,16.16A22,22,0,0,0,601.2,66a22.12,22.12,0,0,0,31.12,0Z"/><path d="M726,83.88H714.41L676.8,40.16V83.88H663V15.76h11.56L712.18,60.7V15.76H726Z"/><path d="M316.73,169.29V101.17h13.78v68.12Z"/><path d="M407.75,169.29H396.2l-37.61-43.72v43.72H344.8V101.17h11.56L394,146.11V101.17h13.78Z"/><path d="M485.16,169.29H473.61L436,125.57v43.72H422.21V101.17h11.56l37.61,44.94V101.17h13.78Z"/><path d="M557.2,110a35.85,35.85,0,0,1,0,50.48,36.41,36.41,0,0,1-50.79,0,35.85,35.85,0,0,1,0-50.48,36.25,36.25,0,0,1,50.79,0Zm-9.83,41.38a21.94,21.94,0,0,0,6.33-16.07,22.24,22.24,0,0,0-6.33-16.16,21.85,21.85,0,0,0-31.12,0,22.21,22.21,0,0,0-6.34,16.16,21.91,21.91,0,0,0,6.34,16.07,22.12,22.12,0,0,0,31.12,0Z"/><path d="M610.4,169.29H597.12l-29.29-68.12H583l20.68,49.62,20.79-49.62h15.2Z"/><path d="M689.39,169.29l-5.88-14.54h-30l-6,14.54h-14.9L662,101.17h12.87l29.4,68.12ZM668.5,118l-9.93,24.3h19.77Z"/><path d="M732.86,113.68v55.61H719.07V113.68h-22.6V101.17h59v12.51Z"/><path d="M763.26,169.29V101.17h13.79v68.12Z"/><path d="M849.09,110a35.85,35.85,0,0,1,0,50.48,36.41,36.41,0,0,1-50.79,0,35.85,35.85,0,0,1,0-50.48,36.25,36.25,0,0,1,50.79,0Zm-9.83,41.38a21.94,21.94,0,0,0,6.33-16.07,22.24,22.24,0,0,0-6.33-16.16,21.85,21.85,0,0,0-31.12,0,22.21,22.21,0,0,0-6.34,16.16,21.91,21.91,0,0,0,6.34,16.07,22.12,22.12,0,0,0,31.12,0Z"/><path d="M933.34,169.29H921.79l-37.61-43.72v43.72H870.39V101.17H882l37.61,44.94V101.17h13.78Z"/><path d="M989.76,104.93A23,23,0,0,1,999,119.27l-13.79,2.84a11.46,11.46,0,0,0-4.46-7.67,14.16,14.16,0,0,0-8.92-2.9,12.41,12.41,0,0,0-8,2.44,7.43,7.43,0,0,0-3,6q0,5.59,6.79,6.91l14.6,3q8.42,1.83,13.13,6.76t4.71,12.76q0,9.87-7.4,15.66T973,170.82q-11.25,0-19.21-5.24a20.07,20.07,0,0,1-9.17-15l14.5-2.94q2.63,11.07,15.2,11.08c3.85,0,6.83-.81,8.92-2.44a7.54,7.54,0,0,0,3.15-6.2,6.37,6.37,0,0,0-1.78-4.78c-1.18-1.16-3.23-2-6.13-2.65l-14.4-2.74q-17.83-3.76-17.84-19.52a18.47,18.47,0,0,1,7-15q7-5.74,18.85-5.75Q982.47,99.64,989.76,104.93Z"/><polygon points="104.06 99.86 123.69 99.86 113.93 74.47 104.06 99.86"/><path d="M0,0V185.05H274V0ZM71.17,86.35,45.91,96.58l25.26,10.15v14.71l-42.7-18.27V89.89l42.7-18.27Zm63.5,41.77-5.84-15.19H99l-5.94,15.19H78.29l29.2-71.18h12.78l29.2,71.18Zm37,0H156.58L186.28,57h13Zm73.91-25-42.7,18.27V106.73l25.26-10.15L202.85,86.35V71.62l42.7,18.27Z"/></g></g></svg>